<?xml version="1.0" encoding="UTF-8" standalone="no"?>
<!-- Created with Inkscape (http://www.inkscape.org/) -->

<svg
   xmlns:dc="http://purl.org/dc/elements/1.1/"
   xmlns:cc="http://creativecommons.org/ns#"
   xmlns:rdf="http://www.w3.org/1999/02/22-rdf-syntax-ns#"
   xmlns:svg="http://www.w3.org/2000/svg"
   xmlns="http://www.w3.org/2000/svg"
   xmlns:xlink="http://www.w3.org/1999/xlink"
   xmlns:sodipodi="http://sodipodi.sourceforge.net/DTD/sodipodi-0.dtd"
   xmlns:inkscape="http://www.inkscape.org/namespaces/inkscape"
   version="1.2"
   width="48"
   height="48"
   id="svg249"
   inkscape:version="0.48.5 r10040"
   sodipodi:docname="align.svg">
  <sodipodi:namedview
     pagecolor="#ffffff"
     bordercolor="#666666"
     borderopacity="1"
     objecttolerance="10"
     gridtolerance="10"
     guidetolerance="10"
     inkscape:pageopacity="0"
     inkscape:pageshadow="2"
     inkscape:window-width="1366"
     inkscape:window-height="721"
     id="namedview65"
     showgrid="false"
     inkscape:zoom="13.906433"
     inkscape:cx="25.431672"
     inkscape:cy="17.853541"
     inkscape:window-x="1678"
     inkscape:window-y="279"
     inkscape:window-maximized="1"
     inkscape:current-layer="svg249" />
  <defs
     id="defs3">
    <radialGradient
       cx="605.71429"
       cy="486.64789"
       r="117.14286"
       fx="605.71429"
       fy="486.64789"
       id="radialGradient6719"
       xlink:href="#linearGradient5060"
       gradientUnits="userSpaceOnUse"
       gradientTransform="matrix(-2.774389,0,0,1.969706,112.7623,-872.8854)" />
    <linearGradient
       id="linearGradient5060">
      <stop
         id="stop5062"
         style="stop-color:#000000;stop-opacity:1"
         offset="0" />
      <stop
         id="stop5064"
         style="stop-color:#000000;stop-opacity:0"
         offset="1" />
    </linearGradient>
    <radialGradient
       cx="605.71429"
       cy="486.64789"
       r="117.14286"
       fx="605.71429"
       fy="486.64789"
       id="radialGradient6717"
       xlink:href="#linearGradient5060"
       gradientUnits="userSpaceOnUse"
       gradientTransform="matrix(2.774389,0,0,1.969706,-1891.633,-872.8854)" />
    <linearGradient
       id="linearGradient5048">
      <stop
         id="stop5050"
         style="stop-color:#000000;stop-opacity:0"
         offset="0" />
      <stop
         id="stop5056"
         style="stop-color:#000000;stop-opacity:1"
         offset="0.5" />
      <stop
         id="stop5052"
         style="stop-color:#000000;stop-opacity:0"
         offset="1" />
    </linearGradient>
    <linearGradient
       x1="302.85715"
       y1="366.64789"
       x2="302.85715"
       y2="609.50507"
       id="linearGradient6715"
       xlink:href="#linearGradient5048"
       gradientUnits="userSpaceOnUse"
       gradientTransform="matrix(2.774389,0,0,1.969706,-1892.179,-872.8854)" />
    <linearGradient
       id="linearGradient4542">
      <stop
         id="stop4544"
         style="stop-color:#000000;stop-opacity:1"
         offset="0" />
      <stop
         id="stop4546"
         style="stop-color:#000000;stop-opacity:0"
         offset="1" />
    </linearGradient>
    <linearGradient
       id="linearGradient15662">
      <stop
         id="stop15664"
         style="stop-color:#ffffff;stop-opacity:1"
         offset="0" />
      <stop
         id="stop15666"
         style="stop-color:#f8f8f8;stop-opacity:1"
         offset="1" />
    </linearGradient>
    <radialGradient
       cx="20.892099"
       cy="64.567902"
       r="5.257"
       fx="20.892099"
       fy="64.567902"
       id="aigrd3"
       gradientUnits="userSpaceOnUse">
      <stop
         id="stop15573"
         style="stop-color:#f0f0f0;stop-opacity:1"
         offset="0" />
      <stop
         id="stop15575"
         style="stop-color:#9a9a9a;stop-opacity:1"
         offset="1" />
    </radialGradient>
    <radialGradient
       cx="20.892099"
       cy="114.5684"
       r="5.256"
       fx="20.892099"
       fy="114.5684"
       id="aigrd2"
       gradientUnits="userSpaceOnUse">
      <stop
         id="stop15566"
         style="stop-color:#f0f0f0;stop-opacity:1"
         offset="0" />
      <stop
         id="stop15568"
         style="stop-color:#9a9a9a;stop-opacity:1"
         offset="1" />
    </radialGradient>
    <linearGradient
       id="linearGradient269">
      <stop
         id="stop270"
         style="stop-color:#a3a3a3;stop-opacity:1"
         offset="0" />
      <stop
         id="stop271"
         style="stop-color:#4c4c4c;stop-opacity:1"
         offset="1" />
    </linearGradient>
    <linearGradient
       id="linearGradient259">
      <stop
         id="stop260"
         style="stop-color:#fafafa;stop-opacity:1"
         offset="0" />
      <stop
         id="stop261"
         style="stop-color:#bbbbbb;stop-opacity:1"
         offset="1" />
    </linearGradient>
    <radialGradient
       cx="8.824419"
       cy="3.7561285"
       r="37.751713"
       fx="8.824419"
       fy="3.7561285"
       id="radialGradient15656"
       xlink:href="#linearGradient269"
       gradientUnits="userSpaceOnUse"
       gradientTransform="matrix(0.968273,0,0,1.032767,3.353553,0.646447)" />
    <radialGradient
       cx="33.966679"
       cy="35.736916"
       r="86.70845"
       fx="33.966679"
       fy="35.736916"
       id="radialGradient15658"
       xlink:href="#linearGradient259"
       gradientUnits="userSpaceOnUse"
       gradientTransform="scale(0.960493,1.041132)" />
    <radialGradient
       cx="8.1435566"
       cy="7.2678967"
       r="38.158695"
       fx="8.1435566"
       fy="7.2678967"
       id="radialGradient15668"
       xlink:href="#linearGradient15662"
       gradientUnits="userSpaceOnUse"
       gradientTransform="matrix(0.968273,0,0,1.032767,3.353553,0.646447)" />
    <radialGradient
       cx="20.892099"
       cy="114.5684"
       r="5.256"
       fx="20.892099"
       fy="114.5684"
       id="radialGradient2283"
       xlink:href="#aigrd2"
       gradientUnits="userSpaceOnUse"
       gradientTransform="matrix(0.229703,0,0,0.229703,4.613529,3.979808)" />
    <radialGradient
       cx="20.892099"
       cy="64.567902"
       r="5.257"
       fx="20.892099"
       fy="64.567902"
       id="radialGradient2285"
       xlink:href="#aigrd3"
       gradientUnits="userSpaceOnUse"
       gradientTransform="matrix(0.229703,0,0,0.229703,4.613529,3.979808)" />
    <radialGradient
       cx="24.306795"
       cy="42.07798"
       r="15.821514"
       fx="24.306795"
       fy="42.07798"
       id="radialGradient4548"
       xlink:href="#linearGradient4542"
       gradientUnits="userSpaceOnUse"
       gradientTransform="matrix(1,0,0,0.284916,0,30.08928)" />
  </defs>
  <metadata
     id="metadata4">
    <rdf:RDF>
      <cc:Work
         rdf:about="">
        <dc:format>image/svg+xml</dc:format>
        <dc:type
           rdf:resource="http://purl.org/dc/dcmitype/StillImage" />
        <dc:title />
        <dc:subject>
          <rdf:Bag>
            <rdf:li>text</rdf:li>
            <rdf:li>plaintext</rdf:li>
            <rdf:li>regular</rdf:li>
            <rdf:li>document</rdf:li>
          </rdf:Bag>
        </dc:subject>
        <cc:license
           rdf:resource="http://creativecommons.org/licenses/publicdomain/" />
        <dc:creator>
          <cc:Agent>
            <dc:title>Jakub Steiner</dc:title>
          </cc:Agent>
        </dc:creator>
        <dc:source>http://jimmac.musichall.cz</dc:source>
      </cc:Work>
      <cc:License
         rdf:about="http://creativecommons.org/licenses/publicdomain/">
        <cc:permits
           rdf:resource="http://creativecommons.org/ns#Reproduction" />
        <cc:permits
           rdf:resource="http://creativecommons.org/ns#Distribution" />
        <cc:permits
           rdf:resource="http://creativecommons.org/ns#DerivativeWorks" />
      </cc:License>
    </rdf:RDF>
  </metadata>
  <g
     transform="matrix(-0.24253753,-1.1501928,1.1501928,-0.24253753,24.784597,108.57121)"
     id="g3979">
    <path
       d="m 67.819496,-2.2372878 -6.938573,6.9385723 0,18.3905855 6.938573,6.938573 6.938572,-6.938573 0,-18.3905855 z"
       id="path3971"
       style="fill:none;stroke:#000000;stroke-width:0.8507117px;stroke-linecap:butt;stroke-linejoin:miter;stroke-opacity:1" />
    <path
       d="m 67.819496,-2.1222889 -2.11189,7.8340453 0,18.3905856 2.11189,5.726007 3.570334,-5.726007 0,-18.3905856 z"
       id="path3973"
       style="fill:none;stroke:#000000;stroke-width:0.8507117px;stroke-linecap:butt;stroke-linejoin:bevel;stroke-opacity:1" />
    <path
       d="m 60.880923,4.5665552 4.7829,1.1452012 5.658642,0 3.435603,-1.0778364"
       id="path3975"
       style="fill:none;stroke:#000000;stroke-width:0.8507117px;stroke-linecap:butt;stroke-linejoin:miter;stroke-opacity:1" />
    <path
       d="m 74.690703,22.889776 -3.368238,1.212566 -5.591277,0 -4.917629,-1.010472"
       id="path3977"
       style="fill:none;stroke:#000000;stroke-width:0.8507117px;stroke-linecap:butt;stroke-linejoin:miter;stroke-opacity:1" />
  </g>
  <g
     transform="translate(-2.5423728,7.8305084)"
     id="g3930"
     style="stroke:#ff0000;stroke-opacity:1">
    <rect
       width="15.050848"
       height="10.677966"
       ry="0"
       x="3.9661016"
       y="5.6949153"
       id="rect3866"
       style="color:#000000;fill:none;stroke:#00079e;stroke-width:1;stroke-linecap:butt;stroke-linejoin:miter;stroke-miterlimit:4;stroke-opacity:1;stroke-dasharray:none;stroke-dashoffset:0;marker:none;visibility:visible;display:inline;overflow:visible;enable-background:accumulate" />
    <rect
       width="15.050848"
       height="10.677966"
       ry="0"
       x="17.694916"
       y="4.6271186"
       id="rect3866-6"
       style="color:#000000;fill:none;stroke:#0300a8;stroke-width:1;stroke-linecap:butt;stroke-linejoin:miter;stroke-miterlimit:4;stroke-opacity:0.78431374;stroke-dasharray:none;stroke-dashoffset:0;marker:none;visibility:visible;display:inline;overflow:visible;enable-background:accumulate" />
    <rect
       width="15.050848"
       height="10.677966"
       ry="0"
       x="31.627117"
       y="3.5084751"
       id="rect3866-1"
       style="color:#000000;fill:none;stroke:#0001bf;stroke-width:1;stroke-linecap:butt;stroke-linejoin:miter;stroke-miterlimit:4;stroke-opacity:0.58823532;stroke-dasharray:none;stroke-dashoffset:0;marker:none;visibility:visible;display:inline;overflow:visible;enable-background:accumulate" />
    <rect
       width="15.050848"
       height="10.677966"
       ry="0"
       x="4.7796617"
       y="15.177966"
       id="rect3866-19"
       style="color:#000000;fill:none;stroke:#0300a8;stroke-width:1;stroke-linecap:butt;stroke-linejoin:miter;stroke-miterlimit:4;stroke-opacity:0.78431374;stroke-dasharray:none;stroke-dashoffset:0;marker:none;visibility:visible;display:inline;overflow:visible;enable-background:accumulate" />
    <rect
       width="15.050848"
       height="10.677966"
       ry="0"
       x="18.508476"
       y="14.110169"
       id="rect3866-6-3"
       style="color:#000000;fill:none;stroke:#0001bf;stroke-width:1;stroke-linecap:butt;stroke-linejoin:miter;stroke-miterlimit:4;stroke-opacity:0.58823532;stroke-dasharray:none;stroke-dashoffset:0;marker:none;visibility:visible;display:inline;overflow:visible;enable-background:accumulate" />
    <rect
       width="15.050848"
       height="10.677966"
       ry="0"
       x="32.440678"
       y="12.991527"
       id="rect3866-1-8"
       style="color:#000000;fill:none;stroke:#0a00c9;stroke-width:1;stroke-linecap:butt;stroke-linejoin:miter;stroke-miterlimit:4;stroke-opacity:0.39215687;stroke-dasharray:none;stroke-dashoffset:0;marker:none;visibility:visible;display:inline;overflow:visible;enable-background:accumulate" />
    <rect
       width="15.050848"
       height="10.677966"
       ry="0"
       x="6.1016955"
       y="24.635592"
       id="rect3866-0"
       style="color:#000000;fill:none;stroke:#0001bf;stroke-width:1;stroke-linecap:butt;stroke-linejoin:miter;stroke-miterlimit:4;stroke-opacity:0.58823532;stroke-dasharray:none;stroke-dashoffset:0;marker:none;visibility:visible;display:inline;overflow:visible;enable-background:accumulate" />
    <rect
       width="15.050848"
       height="10.677966"
       ry="0"
       x="19.830509"
       y="23.567795"
       id="rect3866-6-0"
       style="color:#000000;fill:none;stroke:#0a00c9;stroke-width:1;stroke-linecap:butt;stroke-linejoin:miter;stroke-miterlimit:4;stroke-opacity:0.39215687;stroke-dasharray:none;stroke-dashoffset:0;marker:none;visibility:visible;display:inline;overflow:visible;enable-background:accumulate" />
    <rect
       width="15.050848"
       height="10.677966"
       ry="0"
       x="33.762711"
       y="22.449152"
       id="rect3866-1-85"
       style="color:#000000;fill:none;stroke:#0300d7;stroke-width:1;stroke-linecap:butt;stroke-linejoin:miter;stroke-miterlimit:4;stroke-opacity:0.19607843;stroke-dasharray:none;stroke-dashoffset:0;marker:none;visibility:visible;display:inline;overflow:visible;enable-background:accumulate" />
  </g>
  <g
     id="text3985"
     style="font-size:12px;font-style:normal;font-variant:normal;font-weight:normal;font-stretch:normal;line-height:125%;letter-spacing:0px;word-spacing:0px;fill:#000000;fill-opacity:1;stroke:none;font-family:Arial;-inkscape-font-specification:Arial">
    <path
       d="M 14.631208,8.9767466 C 14.240579,9.3087782 13.863626,9.543153 13.500349,9.6798716 13.140971,9.8165902 12.754252,9.8849495 12.340193,9.8849497 11.656597,9.8849495 11.131207,9.7189341 10.764021,9.3869028 10.396833,9.050966 10.213239,8.6232321 10.21324,8.1036997 c -1e-6,-0.3046856 0.06836,-0.582029 0.205078,-0.8320313 0.140624,-0.2539035 0.322264,-0.4570283 0.544922,-0.609375 0.226561,-0.1523405 0.480467,-0.2675747 0.761718,-0.3457031 0.20703,-0.054684 0.519529,-0.1074183 0.9375,-0.1582031 0.851559,-0.1015588 1.478512,-0.2226525 1.88086,-0.3632813 0.0039,-0.1445271 0.0059,-0.2363239 0.0059,-0.2753906 -5e-6,-0.4296828 -0.09961,-0.7324169 -0.298828,-0.9082031 -0.269535,-0.2382759 -0.669926,-0.3574164 -1.201172,-0.3574219 -0.496096,5.5e-6 -0.863283,0.087896 -1.101562,0.2636719 -0.234377,0.17188 -0.408205,0.4785204 -0.521485,0.9199219 l -1.03125,-0.140625 c 0.09375,-0.4414014 0.248046,-0.7968698 0.462891,-1.0664063 0.214842,-0.2734317 0.525389,-0.4824159 0.931641,-0.6269531 0.406247,-0.1484312 0.87695,-0.2226499 1.412109,-0.2226563 0.531246,6.4e-6 0.962886,0.062506 1.294922,0.1875 0.332026,0.1250061 0.576166,0.2832091 0.732422,0.4746094 0.156244,0.1875055 0.265619,0.4257865 0.328125,0.7148438 0.03515,0.1796923 0.05273,0.5039107 0.05273,0.9726562 l 0,1.40625 c -6e-6,0.9804704 0.02148,1.6015635 0.06445,1.8632813 0.04687,0.2578129 0.136713,0.5058596 0.269531,0.7441406 l -1.101562,0 C 14.732766,9.5255749 14.662454,9.2697158 14.631208,8.9767466 m -0.08789,-2.3554688 c -0.382817,0.156253 -0.957035,0.2890653 -1.722656,0.3984375 -0.433597,0.062503 -0.740237,0.1328151 -0.919922,0.2109375 -0.17969,0.078127 -0.318362,0.1933617 -0.416016,0.3457031 -0.09766,0.1484396 -0.146486,0.314455 -0.146484,0.4980469 -2e-6,0.2812514 0.105467,0.5156262 0.316406,0.703125 0.214842,0.1875008 0.527341,0.2812507 0.9375,0.28125 0.406247,7e-7 0.767574,-0.08789 1.083984,-0.2636719 0.316402,-0.1796863 0.548824,-0.4238267 0.697266,-0.7324218 0.113276,-0.2382794 0.169917,-0.5898415 0.169922,-1.0546875 l 0,-0.3867188"
       id="path3990" />
    <path
       d="m 17.226912,9.7443247 0,-8.5898438 1.054687,0 0,8.5898438 -1.054687,0"
       id="path3992" />
    <path
       d="m 19.928083,2.3673716 0,-1.2128907 1.054688,0 0,1.2128907 -1.054688,0 m 0,7.3769531 0,-6.2226563 1.054688,0 0,6.2226563 -1.054688,0"
       id="path3994" />
    <path
       d="m 22.40074,10.25995 1.02539,0.152343 c 0.04297,0.316406 0.162108,0.546874 0.357422,0.691407 0.261717,0.195311 0.619138,0.292967 1.072266,0.292968 0.488278,-10e-7 0.86523,-0.09766 1.130859,-0.292968 0.265621,-0.195314 0.445308,-0.468751 0.539063,-0.820313 0.05468,-0.214844 0.08007,-0.6660153 0.07617,-1.3535154 -0.460942,0.542969 -1.03516,0.8144531 -1.722657,0.8144531 -0.855471,0 -1.517579,-0.3085935 -1.986328,-0.9257813 C 22.424175,8.2013575 22.1898,7.4611238 22.1898,6.5978403 c 0,-0.5937463 0.107422,-1.1406207 0.322266,-1.640625 0.214843,-0.5039009 0.525389,-0.8925724 0.93164,-1.1660156 0.410155,-0.2734313 0.890623,-0.4101499 1.441407,-0.4101563 0.734371,6.4e-6 1.339839,0.2968811 1.816406,0.890625 l 0,-0.75 0.972656,0 0,5.3789063 c -6e-6,0.9687499 -0.09962,1.6542963 -0.298828,2.0566403 -0.195318,0.406249 -0.507818,0.726561 -0.9375,0.960938 -0.425785,0.234372 -0.951176,0.35156 -1.576172,0.351562 -0.74219,-2e-6 -1.341798,-0.167971 -1.798828,-0.503906 -0.457032,-0.332033 -0.677735,-0.833986 -0.662109,-1.505859 m 0.873047,-3.7382816 c -2e-6,0.8164087 0.162107,1.4121112 0.486328,1.7871094 0.324216,0.3750011 0.730466,0.5625009 1.21875,0.5625 0.484371,9e-7 0.890621,-0.1855458 1.21875,-0.5566406 0.32812,-0.3749982 0.492182,-0.9609351 0.492187,-1.7578125 -5e-6,-0.7617148 -0.169926,-1.335933 -0.509765,-1.7226563 -0.335942,-0.3867134 -0.742192,-0.5800726 -1.21875,-0.5800781 -0.468753,5.5e-6 -0.86719,0.1914116 -1.195313,0.5742188 -0.328127,0.3789107 -0.492189,0.9433633 -0.492187,1.6933593"
       id="path3996" />
    <path
       d="m 29.273787,9.7443247 0,-6.2226563 0.949218,0 0,0.8847657 c 0.457029,-0.6835878 1.117185,-1.0253843 1.980469,-1.0253907 0.374996,6.4e-6 0.718746,0.068366 1.03125,0.2050782 0.316401,0.1328185 0.552729,0.3085996 0.708984,0.5273437 0.156245,0.2187554 0.26562,0.4785208 0.328125,0.7792969 0.03906,0.1953171 0.05859,0.5371137 0.05859,1.0253906 l 0,3.8261719 -1.054687,0 0,-3.7851563 C 33.275735,5.5294851 33.234719,5.209173 33.152693,4.9982309 33.070657,4.7833921 32.924173,4.6134704 32.71324,4.4884653 32.506204,4.3595644 32.262064,4.2951114 31.980818,4.2951059 c -0.449222,5.5e-6 -0.837893,0.1425835 -1.166016,0.4277344 -0.324221,0.285161 -0.48633,0.8261761 -0.486328,1.6230469 l 0,3.3984375 -1.054687,0"
       id="path3998" />
  </g>
</svg>
