<?xml version="1.0" encoding="UTF-8" standalone="no"?>
<!-- Created with Inkscape (http://www.inkscape.org/) -->

<svg
   xmlns:dc="http://purl.org/dc/elements/1.1/"
   xmlns:cc="http://creativecommons.org/ns#"
   xmlns:rdf="http://www.w3.org/1999/02/22-rdf-syntax-ns#"
   xmlns:svg="http://www.w3.org/2000/svg"
   xmlns="http://www.w3.org/2000/svg"
   xmlns:xlink="http://www.w3.org/1999/xlink"
   xmlns:sodipodi="http://sodipodi.sourceforge.net/DTD/sodipodi-0.dtd"
   xmlns:inkscape="http://www.inkscape.org/namespaces/inkscape"
   version="1.2"
   width="48"
   height="48"
   id="svg249"
   inkscape:version="0.48.5 r10040"
   sodipodi:docname="import_rtj.svg">
  <sodipodi:namedview
     pagecolor="#ffffff"
     bordercolor="#666666"
     borderopacity="1"
     objecttolerance="10"
     gridtolerance="10"
     guidetolerance="10"
     inkscape:pageopacity="0"
     inkscape:pageshadow="2"
     inkscape:window-width="1025"
     inkscape:window-height="771"
     id="namedview86"
     showgrid="false"
     inkscape:zoom="4.9166667"
     inkscape:cx="24"
     inkscape:cy="24"
     inkscape:window-x="0"
     inkscape:window-y="0"
     inkscape:window-maximized="0"
     inkscape:current-layer="svg249" />
  <defs
     id="defs3">
    <radialGradient
       cx="605.71429"
       cy="486.64789"
       r="117.14286"
       fx="605.71429"
       fy="486.64789"
       id="radialGradient6719"
       xlink:href="#linearGradient5060"
       gradientUnits="userSpaceOnUse"
       gradientTransform="matrix(-2.774389,0,0,1.969706,112.7623,-872.8854)" />
    <linearGradient
       id="linearGradient5060">
      <stop
         id="stop5062"
         style="stop-color:#000000;stop-opacity:1"
         offset="0" />
      <stop
         id="stop5064"
         style="stop-color:#000000;stop-opacity:0"
         offset="1" />
    </linearGradient>
    <radialGradient
       cx="605.71429"
       cy="486.64789"
       r="117.14286"
       fx="605.71429"
       fy="486.64789"
       id="radialGradient6717"
       xlink:href="#linearGradient5060"
       gradientUnits="userSpaceOnUse"
       gradientTransform="matrix(2.774389,0,0,1.969706,-1891.633,-872.8854)" />
    <linearGradient
       id="linearGradient5048">
      <stop
         id="stop5050"
         style="stop-color:#000000;stop-opacity:0"
         offset="0" />
      <stop
         id="stop5056"
         style="stop-color:#000000;stop-opacity:1"
         offset="0.5" />
      <stop
         id="stop5052"
         style="stop-color:#000000;stop-opacity:0"
         offset="1" />
    </linearGradient>
    <linearGradient
       x1="302.85715"
       y1="366.64789"
       x2="302.85715"
       y2="609.50507"
       id="linearGradient6715"
       xlink:href="#linearGradient5048"
       gradientUnits="userSpaceOnUse"
       gradientTransform="matrix(2.774389,0,0,1.969706,-1892.179,-872.8854)" />
    <linearGradient
       id="linearGradient4542">
      <stop
         id="stop4544"
         style="stop-color:#000000;stop-opacity:1"
         offset="0" />
      <stop
         id="stop4546"
         style="stop-color:#000000;stop-opacity:0"
         offset="1" />
    </linearGradient>
    <linearGradient
       id="linearGradient15662">
      <stop
         id="stop15664"
         style="stop-color:#ffffff;stop-opacity:1"
         offset="0" />
      <stop
         id="stop15666"
         style="stop-color:#f8f8f8;stop-opacity:1"
         offset="1" />
    </linearGradient>
    <radialGradient
       cx="20.892099"
       cy="64.567902"
       r="5.257"
       fx="20.892099"
       fy="64.567902"
       id="aigrd3"
       gradientUnits="userSpaceOnUse">
      <stop
         id="stop15573"
         style="stop-color:#f0f0f0;stop-opacity:1"
         offset="0" />
      <stop
         id="stop15575"
         style="stop-color:#9a9a9a;stop-opacity:1"
         offset="1" />
    </radialGradient>
    <radialGradient
       cx="20.892099"
       cy="114.5684"
       r="5.256"
       fx="20.892099"
       fy="114.5684"
       id="aigrd2"
       gradientUnits="userSpaceOnUse">
      <stop
         id="stop15566"
         style="stop-color:#f0f0f0;stop-opacity:1"
         offset="0" />
      <stop
         id="stop15568"
         style="stop-color:#9a9a9a;stop-opacity:1"
         offset="1" />
    </radialGradient>
    <linearGradient
       id="linearGradient269">
      <stop
         id="stop270"
         style="stop-color:#a3a3a3;stop-opacity:1"
         offset="0" />
      <stop
         id="stop271"
         style="stop-color:#4c4c4c;stop-opacity:1"
         offset="1" />
    </linearGradient>
    <linearGradient
       id="linearGradient259">
      <stop
         id="stop260"
         style="stop-color:#fafafa;stop-opacity:1"
         offset="0" />
      <stop
         id="stop261"
         style="stop-color:#bbbbbb;stop-opacity:1"
         offset="1" />
    </linearGradient>
    <radialGradient
       cx="8.824419"
       cy="3.7561285"
       r="37.751713"
       fx="8.824419"
       fy="3.7561285"
       id="radialGradient15656"
       xlink:href="#linearGradient269"
       gradientUnits="userSpaceOnUse"
       gradientTransform="matrix(0.968273,0,0,1.032767,3.353553,0.646447)" />
    <radialGradient
       cx="33.966679"
       cy="35.736916"
       r="86.70845"
       fx="33.966679"
       fy="35.736916"
       id="radialGradient15658"
       xlink:href="#linearGradient259"
       gradientUnits="userSpaceOnUse"
       gradientTransform="scale(0.960493,1.041132)" />
    <radialGradient
       cx="8.1435566"
       cy="7.2678967"
       r="38.158695"
       fx="8.1435566"
       fy="7.2678967"
       id="radialGradient15668"
       xlink:href="#linearGradient15662"
       gradientUnits="userSpaceOnUse"
       gradientTransform="matrix(0.968273,0,0,1.032767,3.353553,0.646447)" />
    <radialGradient
       cx="20.892099"
       cy="114.5684"
       r="5.256"
       fx="20.892099"
       fy="114.5684"
       id="radialGradient2283"
       xlink:href="#aigrd2"
       gradientUnits="userSpaceOnUse"
       gradientTransform="matrix(0.229703,0,0,0.229703,4.613529,3.979808)" />
    <radialGradient
       cx="20.892099"
       cy="64.567902"
       r="5.257"
       fx="20.892099"
       fy="64.567902"
       id="radialGradient2285"
       xlink:href="#aigrd3"
       gradientUnits="userSpaceOnUse"
       gradientTransform="matrix(0.229703,0,0,0.229703,4.613529,3.979808)" />
    <radialGradient
       cx="24.306795"
       cy="42.07798"
       r="15.821514"
       fx="24.306795"
       fy="42.07798"
       id="radialGradient4548"
       xlink:href="#linearGradient4542"
       gradientUnits="userSpaceOnUse"
       gradientTransform="matrix(1,0,0,0.284916,0,30.08928)" />
  </defs>
  <metadata
     id="metadata4">
    <rdf:RDF>
      <cc:Work
         rdf:about="">
        <dc:format>image/svg+xml</dc:format>
        <dc:type
           rdf:resource="http://purl.org/dc/dcmitype/StillImage" />
        <dc:title></dc:title>
        <dc:subject>
          <rdf:Bag>
            <rdf:li>text</rdf:li>
            <rdf:li>plaintext</rdf:li>
            <rdf:li>regular</rdf:li>
            <rdf:li>document</rdf:li>
          </rdf:Bag>
        </dc:subject>
        <cc:license
           rdf:resource="http://creativecommons.org/licenses/publicdomain/" />
        <dc:creator>
          <cc:Agent>
            <dc:title>Jakub Steiner</dc:title>
          </cc:Agent>
        </dc:creator>
        <dc:source>http://jimmac.musichall.cz</dc:source>
      </cc:Work>
      <cc:License
         rdf:about="http://creativecommons.org/licenses/publicdomain/">
        <cc:permits
           rdf:resource="http://creativecommons.org/ns#Reproduction" />
        <cc:permits
           rdf:resource="http://creativecommons.org/ns#Distribution" />
        <cc:permits
           rdf:resource="http://creativecommons.org/ns#DerivativeWorks" />
      </cc:License>
    </rdf:RDF>
  </metadata>
  <g
     id="layer6">
    <g
       transform="matrix(0.02105461,0,0,0.02086758,42.85172,41.1536)"
       id="g6707"
       style="display:inline">
      <rect
         width="1339.6335"
         height="478.35718"
         x="-1559.2523"
         y="-150.69685"
         id="rect6709"
         style="opacity:0.40206185;color:#000000;fill:url(#linearGradient6715);fill-opacity:1;fill-rule:nonzero;stroke:none;stroke-width:1;marker:none;visibility:visible;display:inline;overflow:visible" />
      <path
         d="m -219.61876,-150.68038 c 0,0 0,478.33079 0,478.33079 142.874166,0.90045 345.40022,-107.16966 345.40014,-239.196175 0,-132.026537 -159.436816,-239.134595 -345.40014,-239.134615 z"
         id="path6711"
         style="opacity:0.40206185;color:#000000;fill:url(#radialGradient6717);fill-opacity:1;fill-rule:nonzero;stroke:none;stroke-width:1;marker:none;visibility:visible;display:inline;overflow:visible" />
      <path
         d="m -1559.2523,-150.68038 c 0,0 0,478.33079 0,478.33079 -142.8742,0.90045 -345.4002,-107.16966 -345.4002,-239.196175 0,-132.026537 159.4368,-239.134595 345.4002,-239.134615 z"
         id="path6713"
         style="opacity:0.40206185;color:#000000;fill:url(#radialGradient6719);fill-opacity:1;fill-rule:nonzero;stroke:none;stroke-width:1;marker:none;visibility:visible;display:inline;overflow:visible" />
    </g>
  </g>
  <g
     id="layer1"
     style="display:inline">
    <rect
       width="34.875"
       height="40.920494"
       ry="1.1490486"
       x="6.6035528"
       y="3.6464462"
       id="rect15391"
       style="color:#000000;fill:url(#radialGradient15658);fill-opacity:1;fill-rule:nonzero;stroke:url(#radialGradient15656);stroke-width:1;stroke-linecap:round;stroke-linejoin:round;stroke-miterlimit:4;stroke-opacity:1;stroke-dashoffset:0;marker:none;visibility:visible;display:block;overflow:visible" />
    <rect
       width="32.775887"
       height="38.946384"
       rx="0.14904857"
       ry="0.14904857"
       x="7.6660538"
       y="4.5839462"
       id="rect15660"
       style="color:#000000;fill:none;stroke:url(#radialGradient15668);stroke-width:1;stroke-linecap:round;stroke-linejoin:round;stroke-miterlimit:4;stroke-opacity:1;stroke-dashoffset:0;marker:none;visibility:visible;display:block;overflow:visible" />
    <g
       transform="translate(0.646447,-0.03798933)"
       id="g2270">
      <g
         transform="matrix(0.229703,0,0,0.229703,4.967081,4.244972)"
         id="g1440"
         style="fill:#ffffff;fill-opacity:1;fill-rule:nonzero;stroke:#000000;stroke-miterlimit:4">
        <radialGradient
           cx="20.892099"
           cy="114.5684"
           r="5.256"
           fx="20.892099"
           fy="114.5684"
           id="radialGradient1442"
           gradientUnits="userSpaceOnUse">
          <stop
             id="stop1444"
             style="stop-color:#f0f0f0;stop-opacity:1"
             offset="0" />
          <stop
             id="stop1446"
             style="stop-color:#474747;stop-opacity:1"
             offset="1" />
        </radialGradient>
        <path
           d="m 23.428,113.07 c 0,1.973 -1.6,3.572 -3.573,3.572 -1.974,0 -3.573,-1.6 -3.573,-3.572 0,-1.974 1.6,-3.573 3.573,-3.573 1.973,0 3.573,1.6 3.573,3.573 z"
           id="path1448"
           style="stroke:none" />
        <radialGradient
           cx="20.892099"
           cy="64.567902"
           r="5.257"
           fx="20.892099"
           fy="64.567902"
           id="radialGradient1450"
           gradientUnits="userSpaceOnUse">
          <stop
             id="stop1452"
             style="stop-color:#f0f0f0;stop-opacity:1"
             offset="0" />
          <stop
             id="stop1454"
             style="stop-color:#474747;stop-opacity:1"
             offset="1" />
        </radialGradient>
        <path
           d="m 23.428,63.07 c 0,1.973 -1.6,3.573 -3.573,3.573 -1.974,0 -3.573,-1.6 -3.573,-3.573 0,-1.974 1.6,-3.573 3.573,-3.573 1.973,0 3.573,1.6 3.573,3.573 z"
           id="path1456"
           style="stroke:none" />
      </g>
      <path
         d="m 9.9950109,29.952326 c 0,0.453204 -0.3675248,0.820499 -0.8207288,0.820499 -0.4534338,0 -0.8207289,-0.367524 -0.8207289,-0.820499 0,-0.453434 0.3675248,-0.820729 0.8207289,-0.820729 0.453204,0 0.8207288,0.367525 0.8207288,0.820729 z"
         id="path15570"
         style="fill:url(#radialGradient2283);fill-rule:nonzero;stroke:none" />
      <path
         d="m 9.9950109,18.467176 c 0,0.453204 -0.3675248,0.820729 -0.8207288,0.820729 -0.4534338,0 -0.8207289,-0.367525 -0.8207289,-0.820729 0,-0.453434 0.3675248,-0.820729 0.8207289,-0.820729 0.453204,0 0.8207288,0.367525 0.8207288,0.820729 z"
         id="path15577"
         style="fill:url(#radialGradient2285);fill-rule:nonzero;stroke:none" />
    </g>
    <path
       d="m 11.505723,5.4942766 0,37.9065924"
       id="path15672"
       style="fill:none;stroke:#000000;stroke-width:0.98855311;stroke-linecap:butt;stroke-linejoin:miter;stroke-miterlimit:4;stroke-opacity:0.01754384" />
    <path
       d="m 12.5,5.0205154 0,38.0177126"
       id="path15674"
       style="fill:none;stroke:#ffffff;stroke-width:1;stroke-linecap:butt;stroke-linejoin:miter;stroke-miterlimit:4;stroke-opacity:0.20467834" />
  </g>
  <g
     id="layer5"
     style="display:inline">
    <g
       transform="matrix(0.909091,0,0,1,2.363628,0)"
       id="g2253">
      <rect
         width="22.000004"
         height="1"
         rx="0.15156493"
         ry="0.065390877"
         x="15.000002"
         y="9"
         id="rect15686"
         style="color:#000000;fill:#9b9b9b;fill-opacity:0.54970757;fill-rule:nonzero;stroke:none;stroke-width:1;marker:none;visibility:visible;display:block;overflow:visible" />
      <rect
         width="22.000004"
         height="1"
         rx="0.15156493"
         ry="0.065390877"
         x="15.000002"
         y="11"
         id="rect15688"
         style="color:#000000;fill:#9b9b9b;fill-opacity:0.54970757;fill-rule:nonzero;stroke:none;stroke-width:1;marker:none;visibility:visible;display:block;overflow:visible" />
      <rect
         width="22.000004"
         height="1"
         rx="0.15156493"
         ry="0.065390877"
         x="15.000002"
         y="13"
         id="rect15690"
         style="color:#000000;fill:#9b9b9b;fill-opacity:0.54970757;fill-rule:nonzero;stroke:none;stroke-width:1;marker:none;visibility:visible;display:block;overflow:visible" />
      <rect
         width="22.000004"
         height="1"
         rx="0.15156493"
         ry="0.065390877"
         x="15.000002"
         y="15"
         id="rect15692"
         style="color:#000000;fill:#9b9b9b;fill-opacity:0.54970757;fill-rule:nonzero;stroke:none;stroke-width:1;marker:none;visibility:visible;display:block;overflow:visible" />
      <rect
         width="22.000004"
         height="1"
         rx="0.15156493"
         ry="0.065390877"
         x="15.000002"
         y="17"
         id="rect15694"
         style="color:#000000;fill:#9b9b9b;fill-opacity:0.54970757;fill-rule:nonzero;stroke:none;stroke-width:1;marker:none;visibility:visible;display:block;overflow:visible" />
      <rect
         width="22.000004"
         height="1"
         rx="0.15156493"
         ry="0.065390877"
         x="15.000002"
         y="19"
         id="rect15696"
         style="color:#000000;fill:#9b9b9b;fill-opacity:0.54970757;fill-rule:nonzero;stroke:none;stroke-width:1;marker:none;visibility:visible;display:block;overflow:visible" />
      <rect
         width="22.000004"
         height="1"
         rx="0.15156493"
         ry="0.065390877"
         x="15.000002"
         y="21"
         id="rect15698"
         style="color:#000000;fill:#9b9b9b;fill-opacity:0.54970757;fill-rule:nonzero;stroke:none;stroke-width:1;marker:none;visibility:visible;display:block;overflow:visible" />
      <rect
         width="22.000004"
         height="1"
         rx="0.15156493"
         ry="0.065390877"
         x="15.000002"
         y="23"
         id="rect15700"
         style="color:#000000;fill:#9b9b9b;fill-opacity:0.54970757;fill-rule:nonzero;stroke:none;stroke-width:1;marker:none;visibility:visible;display:block;overflow:visible" />
      <rect
         width="9.9000053"
         height="1"
         rx="0.068204239"
         ry="0.065390877"
         x="14.999992"
         y="25"
         id="rect15732"
         style="color:#000000;fill:#9b9b9b;fill-opacity:0.54970757;fill-rule:nonzero;stroke:none;stroke-width:1;marker:none;visibility:visible;display:block;overflow:visible" />
      <rect
         width="22.000004"
         height="1"
         rx="0.15156493"
         ry="0.065390877"
         x="14.999992"
         y="29"
         id="rect15736"
         style="color:#000000;fill:#9b9b9b;fill-opacity:0.54970757;fill-rule:nonzero;stroke:none;stroke-width:1;marker:none;visibility:visible;display:block;overflow:visible" />
      <rect
         width="22.000004"
         height="1"
         rx="0.15156493"
         ry="0.065390877"
         x="14.999992"
         y="31"
         id="rect15738"
         style="color:#000000;fill:#9b9b9b;fill-opacity:0.54970757;fill-rule:nonzero;stroke:none;stroke-width:1;marker:none;visibility:visible;display:block;overflow:visible" />
      <rect
         width="22.000004"
         height="1"
         rx="0.15156493"
         ry="0.065390877"
         x="14.999992"
         y="33"
         id="rect15740"
         style="color:#000000;fill:#9b9b9b;fill-opacity:0.54970757;fill-rule:nonzero;stroke:none;stroke-width:1;marker:none;visibility:visible;display:block;overflow:visible" />
      <rect
         width="22.000004"
         height="1"
         rx="0.15156493"
         ry="0.065390877"
         x="14.999992"
         y="35"
         id="rect15742"
         style="color:#000000;fill:#9b9b9b;fill-opacity:0.54970757;fill-rule:nonzero;stroke:none;stroke-width:1;marker:none;visibility:visible;display:block;overflow:visible" />
      <rect
         width="15.400014"
         height="1"
         rx="0.10609552"
         ry="0.065390877"
         x="14.999992"
         y="37"
         id="rect15744"
         style="color:#000000;fill:#9b9b9b;fill-opacity:0.54970757;fill-rule:nonzero;stroke:none;stroke-width:1;marker:none;visibility:visible;display:block;overflow:visible" />
    </g>
    <path
       d="m 74.422992,16.710526 a 9.4575529,3.3587573 0 1 1 -18.915106,0 9.4575529,3.3587573 0 1 1 18.915106,0 z"
       transform="matrix(0.85047756,-0.52601133,0.52601133,0.85047756,-38.497338,34.726612)"
       id="path3058"
       style="color:#000000;fill:none;stroke:#214478;stroke-width:1;stroke-linecap:butt;stroke-linejoin:miter;stroke-miterlimit:4;stroke-opacity:1;stroke-dasharray:none;stroke-dashoffset:0;marker:none;visibility:visible;display:inline;overflow:visible;enable-background:accumulate" />
    <path
       d="m 74.422992,16.710526 a 9.4575529,3.3587573 0 1 1 -18.915106,0 9.4575529,3.3587573 0 1 1 18.915106,0 z"
       transform="matrix(0.87111687,0.49107576,-0.49107576,0.87111687,-22.93051,-31.870569)"
       id="path3058-4"
       style="color:#000000;fill:none;stroke:#214478;stroke-width:1;stroke-linecap:butt;stroke-linejoin:miter;stroke-miterlimit:4;stroke-opacity:1;stroke-dasharray:none;stroke-dashoffset:0;marker:none;visibility:visible;display:inline;overflow:visible;enable-background:accumulate" />
    <path
       d="m 61.695067,22.27899 a 0.88388348,0.79549515 0 1 1 -1.767767,0 0.88388348,0.79549515 0 1 1 1.767767,0 z"
       transform="translate(-39.421203,-1.9445437)"
       id="path3846"
       style="color:#000000;fill:#214478;fill-opacity:1;stroke:#214478;stroke-width:1;stroke-linecap:butt;stroke-linejoin:miter;stroke-miterlimit:4;stroke-opacity:1;stroke-dasharray:none;stroke-dashoffset:0;marker:none;visibility:visible;display:inline;overflow:visible;enable-background:accumulate" />
    <path
       d="m 60.987962,11.407224 a 0.79549515,0.88388348 0 1 1 -1.59099,0 0.79549515,0.88388348 0 1 1 1.59099,0 z"
       transform="translate(-39.421203,-2.1213204)"
       id="path3848"
       style="color:#000000;fill:#214478;fill-opacity:1;stroke:#214478;stroke-width:1;stroke-linecap:butt;stroke-linejoin:miter;stroke-miterlimit:4;stroke-opacity:1;stroke-dasharray:none;stroke-dashoffset:0;marker:none;visibility:visible;display:inline;overflow:visible;enable-background:accumulate" />
    <g
       transform="matrix(1.5152896,0,0,1.5152896,-8.4695699,-21.129811)"
       style="font-size:10px;font-style:normal;font-variant:normal;font-weight:bold;font-stretch:normal;line-height:125%;letter-spacing:0px;word-spacing:0px;fill:#000000;fill-opacity:1;stroke:none;font-family:Arial;-inkscape-font-specification:Arial Bold"
       id="flowRoot3898">
      <path
         d="m 16.436523,37.872014 0,-1.37207 1.372071,0 0,1.37207 -1.372071,0"
         style=""
         id="path3083" />
      <path
         d="m 20.523437,37.872014 -1.37207,0 0,-5.185547 1.274414,0 0,0.737305 c 0.218097,-0.348302 0.413409,-0.577794 0.585938,-0.688476 0.175778,-0.110672 0.374346,-0.166011 0.595703,-0.166016 0.312496,5e-6 0.613603,0.08627 0.90332,0.258789 l -0.424805,1.196289 c -0.231123,-0.149736 -0.445966,-0.224605 -0.644531,-0.224609 -0.19206,4e-6 -0.35482,0.05372 -0.488281,0.161133 -0.133466,0.10417 -0.23926,0.294599 -0.317383,0.571289 -0.07487,0.276695 -0.112307,0.856122 -0.112305,1.738281 l 0,1.601562"
         style=""
         id="path3085" />
      <path
         d="m 25.474609,32.686467 0,1.09375 -0.9375,0 0,2.089844 c -2e-6,0.423179 0.0081,0.670574 0.02441,0.742188 0.01953,0.06836 0.06022,0.125326 0.122071,0.170898 0.0651,0.04557 0.143226,0.06836 0.234375,0.06836 0.12695,1e-6 0.310869,-0.04395 0.551758,-0.131836 l 0.117187,1.064453 c -0.319013,0.136718 -0.680341,0.205078 -1.083984,0.205078 -0.247398,0 -0.47038,-0.04069 -0.668946,-0.12207 -0.198569,-0.08464 -0.345053,-0.192058 -0.439453,-0.322266 -0.09115,-0.133463 -0.154623,-0.312499 -0.190429,-0.537109 -0.0293,-0.159505 -0.04395,-0.48177 -0.04395,-0.966797 l 0,-2.260743 -0.629883,0 0,-1.09375 0.629883,0 0,-1.030273 1.376953,-0.800781 0,1.831054 0.9375,0"
         style=""
         id="path3087" />
      <path
         d="m 26.407227,31.983342 0,-1.269531 1.37207,0 0,1.269531 -1.37207,0 m 1.37207,0.703125 0,5.024415 c -2e-6,0.660806 -0.04395,1.126301 -0.131836,1.396484 -0.08464,0.273436 -0.250653,0.486652 -0.498047,0.639648 -0.244142,0.152993 -0.556641,0.22949 -0.9375,0.229493 -0.136719,-3e-6 -0.284831,-0.01302 -0.444336,-0.03906 -0.15625,-0.02279 -0.32552,-0.0586 -0.507812,-0.107422 l 0.239257,-1.171875 c 0.0651,0.01302 0.126954,0.02279 0.185547,0.0293 0.05534,0.0098 0.107422,0.01465 0.15625,0.01465 0.139974,0 0.253906,-0.03093 0.341797,-0.09277 0.09115,-0.05859 0.151367,-0.130209 0.180664,-0.214844 0.0293,-0.08464 0.04395,-0.338542 0.04395,-0.761718 l 0,-4.94629 1.37207,0"
         style=""
         id="path3089" />
    </g>
    <path
       d="M 36.062446,17.064078 C 36.84743,12.826122 37.36,10.296677 42.426407,7.34136 l 3.889087,3.889087 0.883884,-10.42982507 -10.783379,0.53033047 3.447146,3.4471454 c 0,0 -3.623922,2.2097085 -11.578873,1.5026018"
       id="path3906"
       style="fill:none;stroke:#002255;stroke-width:1px;stroke-linecap:butt;stroke-linejoin:miter;stroke-opacity:1" />
  </g>
</svg>
